<?xml version="1.0"?>
<!DOCTYPE svg PUBLIC "-//W3C//DTD SVG 1.1//EN" "http://www.w3.org/Graphics/SVG/1.1/DTD/svg11.dtd">
<svg xmlns="http://www.w3.org/2000/svg" xmlns:xl="http://www.w3.org/1999/xlink" version="1.1" class="menu" width="250px" height="250px" viewBox="0 0 500 500">
    <style><![CDATA[
        .border {
            fill: white;
            transform-origin: 250px 250px;
            transition: 200ms all ease;
        }
        .close-border1 {
            transform: translate(-102px, 102px) rotate(45deg);
        }
        .close-border2 {
            opacity: 0;
        }
        .close-border3 {
            transform: translate(-102px, -102px) rotate(-45deg);
        }
    ]]></style>
    <!-- 一番上の線 -->
    <path class="border" id="border1"
            d="M44.6,151.6h409.9c18.9,0,34.2-15.2,34.2-34.1c0-18.8-15.3-34-34.2-34H44.6c-18.8,0-34.1,15.2-34.1,34 C10.4,136.4,25.7,151.6,44.6,151.6z"/>
    <!-- 真ん中の線 -->
    <path class="border" id="border2"
            d="M454.5,219.9H44.5c-18.8,0-34.1,15.3-34.1,34.1c0,18.9,15.3,34.2,34.1,34.2h409.9c18.9,0,34.2-15.3,34.2-34.2 C488.7,235.2,473.3,219.9,454.5,219.9z"/>
    <!-- 一番下の線 -->
    <path class="border" id="border3"
            d="M454.5,356.7H44.5c-18.8,0-34.1,15.2-34.1,34.1c0,18.8,15.3,34.1,34.1,34.1h409.9c18.9,0,34.2-15.3,34.2-34.1 S473.3,356.7,454.5,356.7z"/>
    <script><![CDATA[
        const border1 = document.querySelector('#border1');
        const border2 = document.querySelector('#border2');
        const border3 = document.querySelector('#border3');
        document.transformFunction = {
            toCloseButton: function(){
                border1.classList.add('close-border1');
                border2.classList.add('close-border2');
                border3.classList.add('close-border3');
            },
            toHamburgerButton: function() {
                border1.classList.remove('close-border1');
                border2.classList.remove('close-border2');
                border3.classList.remove('close-border3');
            },
            getIconStatus: function() {
                if (border1.classList.contains('close-border1')) {
                    return 'closeButton';
                } else {
                    return 'hamburgerButton';
                }
            }
        }
    ]]></script>
</svg>